<?xml version="1.0" standalone="no"?>
<!DOCTYPE svg PUBLIC "-//W3C//DTD SVG 20010904//EN"
 "http://www.w3.org/TR/2001/REC-SVG-20010904/DTD/svg10.dtd">
<svg version="1.0" xmlns="http://www.w3.org/2000/svg"
 width="540.000000pt" height="540.000000pt" viewBox="0 0 540.000000 540.000000"
 preserveAspectRatio="xMidYMid meet">
<metadata>
Created by potrace 1.11, written by Peter Selinger 2001-2013
</metadata>
<g transform="translate(0.000000,540.000000) scale(0.100000,-0.100000)"
fill="#000000" stroke="none">
<path d="M0 2700 l0 -2700 2700 0 2700 0 0 2700 0 2700 -2700 0 -2700 0 0
-2700z m3180 964 c0 -8 -742 -1859 -756 -1886 -21 -40 -63 -58 -139 -58 -36 0
-65 2 -65 5 0 7 731 1827 752 1873 21 44 43 61 91 71 29 6 117 2 117 -5z
m-1240 -537 c0 -84 -2 -96 -22 -114 -24 -22 -638 -333 -657 -333 -6 0 -11 -4
-11 -10 0 -5 7 -10 16 -10 21 0 635 -311 656 -332 15 -15 18 -36 18 -114 0
-53 -4 -94 -8 -92 -4 2 -149 77 -322 167 -173 90 -388 202 -478 249 l-163 84
3 51 3 52 475 247 c261 135 478 247 483 247 4 1 7 -41 7 -92z m2010 -156 l475
-247 3 -51 3 -51 -468 -242 c-257 -134 -472 -247 -477 -251 -6 -5 -14 -9 -18
-9 -13 0 -9 184 5 203 14 19 638 337 661 337 9 0 16 5 16 10 0 6 -5 10 -11 10
-18 0 -633 311 -656 333 -21 18 -23 30 -23 114 0 51 3 93 8 92 4 0 221 -112
482 -248z"/>
</g>
</svg>
